<svg xmlns="http://www.w3.org/2000/svg" xmlns:xlink="http://www.w3.org/1999/xlink" viewBox="0,0,256,256" width="150px" height="150px" fill-rule="nonzero"><g transform="translate(46.08,46.08) scale(0.64,0.64)"><g fill="#374151" fill-rule="nonzero" stroke="none" stroke-width="1" stroke-linecap="butt" stroke-linejoin="miter" stroke-miterlimit="10" stroke-dasharray="" stroke-dashoffset="0" font-family="none" font-weight="none" font-size="none" text-anchor="none" style="mix-blend-mode: normal"><path d="M128,312c-101.62039,0 -184,-82.37961 -184,-184v0c0,-101.62039 82.37961,-184 184,-184v0c101.62039,0 184,82.37961 184,184v0c0,101.62039 -82.37961,184 -184,184z" id="shape"></path></g><g fill="#e8e3e3" fill-rule="nonzero" stroke="none" stroke-width="1" stroke-linecap="butt" stroke-linejoin="miter" stroke-miterlimit="10" stroke-dasharray="" stroke-dashoffset="0" font-family="none" font-weight="none" font-size="none" text-anchor="none" style="mix-blend-mode: normal"><g transform="scale(5.12,5.12)"><path d="M25,1c-6.396,0 -12.33652,2.56284 -16.72852,7.21484c-0.294,0.312 -0.3573,0.77725 -0.1543,1.15625l0.67969,1.26953c-2.922,3.541 -4.5983,7.93739 -4.7793,12.52539c-1.173,0.407 -2.01758,1.52398 -2.01758,2.83398v4c0,1.654 1.346,3 3,3h4c0.553,0 1,-0.447 1,-1v-8c0,-4.141 1.64948,-7.99452 4.64648,-10.85352c2.995,-2.857 6.92208,-4.32991 11.08008,-4.12891c8.004,0.377 14.27344,7.15559 14.27344,15.43359v7.54883c0,0.553 0.447,1 1,1h4c1.654,0 3,-1.346 3,-3v-4c0,-1.31 -0.84458,-2.42698 -2.01758,-2.83398c-0.182,-4.578 -1.85172,-8.96791 -4.76172,-12.50391l0.66992,-1.30664c0.192,-0.376 0.12594,-0.83458 -0.16406,-1.14258c-4.391,-4.651 -10.33056,-7.21289 -16.72656,-7.21289zM15.875,27c-1.986,0 -2.875,1.78187 -2.875,3.54688c0,1.73 0.46491,3.06942 1.37891,3.98242c1.41,1.407 3.54841,1.47266 5.19141,1.47266c0.085,0 0.168,-0.00095 0.25,-0.00195h0.24219c1.078,0 3.9375,0.00052 3.9375,-2.27148c0,-1.151 -1.12852,-2.69403 -3.35352,-4.58203c-0.593,-0.504 -2.69248,-2.14648 -4.77148,-2.14648zM34.33203,29c-1.834,0 -3.70051,1.17711 -4.22852,1.53711c-2.783,1.897 -3.10352,2.93769 -3.10352,3.55469c0,1.909 2.43933,1.91016 3.61133,1.91016h0.21484h0.23633c1.646,0 3.61695,-0.0555 4.87695,-1.3125c0.703,-0.701 1.06055,-1.66809 1.06055,-2.87109c0,-1.358 -0.83597,-2.81836 -2.66797,-2.81836zM40.22852,35.00195c-0.39,0.014 -0.73377,0.25233 -0.88477,0.61133c-0.022,0.056 -2.36084,5.55262 -6.96484,8.26563c-4.632,2.729 -9.33481,2.77344 -9.38281,2.77344c-0.519,0.002 -0.94819,0.39901 -0.99219,0.91602c-0.043,0.517 0.31222,0.98036 0.82422,1.06836c0.19,0.033 2.20514,0.36914 4.86914,0.36914c3.654,0 8.53037,-0.63202 11.60938,-3.54102c3.682,-3.478 2.81861,-8.00797 1.84961,-9.91797c-0.175,-0.346 -0.50573,-0.58092 -0.92773,-0.54492z"></path></g></g></g></svg>